<?xml version="1.0" standalone="no"?>
<!DOCTYPE svg PUBLIC "-//W3C//DTD SVG 20010904//EN"
 "http://www.w3.org/TR/2001/REC-SVG-20010904/DTD/svg10.dtd">
<svg version="1.0" xmlns="http://www.w3.org/2000/svg"
 width="254.000000pt" height="254.000000pt" viewBox="0 0 254.000000 254.000000"
 preserveAspectRatio="xMidYMid meet">
<metadata>
Created by potrace 1.11, written by Peter Selinger 2001-2013
</metadata>
<g transform="translate(0.000000,254.000000) scale(0.100000,-0.100000)"
fill="#000000" stroke="none">
<path d="M2083 2423 c-21 -31 -53 -96 -53 -110 0 -4 -12 -22 -28 -38 -15 -17
-32 -39 -38 -50 -5 -10 -18 -19 -28 -21 -25 -4 -47 -25 -39 -38 4 -6 8 -14 9
-18 1 -5 3 -9 4 -10 1 -2 3 -25 4 -53 2 -46 -7 -77 -45 -147 -5 -10 -9 -25 -9
-33 0 -8 -5 -15 -10 -15 -6 0 -9 -3 -9 -7 4 -23 -3 -33 -22 -33 -23 0 -64 -45
-64 -70 -1 -8 -7 -26 -14 -40 -8 -13 -14 -48 -13 -77 0 -45 -4 -58 -29 -84
-16 -18 -32 -29 -36 -26 -3 4 -13 2 -23 -3 -20 -11 -51 16 -101 84 -18 26 -36
46 -41 46 -4 0 -8 5 -8 10 0 19 -62 75 -83 77 -12 1 -50 2 -84 4 -35 1 -64 5
-64 8 -6 31 -4 110 4 125 28 56 9 164 -34 194 -11 7 -19 17 -19 23 0 5 -9 18
-20 29 -27 27 -85 27 -100 0 -6 -11 -15 -18 -20 -15 -21 13 -133 -80 -125
-105 4 -14 -8 -45 -16 -39 -8 5 -91 -12 -85 -18 7 -7 -40 -53 -54 -53 -35 0
-140 -158 -152 -230 -1 -3 -7 -9 -14 -15 -9 -7 -12 -40 -11 -113 1 -56 -2
-103 -7 -105 -5 -2 -11 -21 -13 -44 -2 -30 2 -45 16 -58 11 -9 17 -23 15 -30
-6 -14 39 -85 61 -98 8 -4 11 -15 8 -24 -4 -11 -3 -14 5 -9 7 4 12 2 12 -4 0
-14 36 -51 77 -78 24 -17 46 -22 96 -22 63 0 81 -8 82 -35 0 -5 -4 -13 -10
-17 -6 -5 -6 -8 2 -8 9 0 10 -7 4 -22 -4 -13 -7 -33 -6 -46 1 -12 -2 -22 -6
-22 -4 0 -6 -11 -4 -25 1 -14 -2 -25 -7 -25 -6 0 -8 -7 -5 -15 4 -8 2 -17 -2
-20 -5 -3 -8 -18 -7 -35 1 -16 -2 -31 -6 -32 -5 -2 -11 -14 -14 -28 -12 -57
-16 -76 -18 -95 -2 -11 -7 -28 -11 -37 -4 -10 -5 -25 -1 -33 3 -8 1 -15 -5
-15 -6 0 -8 -4 -5 -9 3 -5 0 -11 -7 -14 -6 -2 -18 -22 -26 -43 -8 -22 -22 -46
-32 -55 -11 -9 -19 -24 -19 -33 0 -9 -4 -16 -9 -16 -5 0 -16 -12 -26 -26 -9
-15 -11 -23 -4 -19 13 9 6 -8 -16 -35 -14 -17 -30 -69 -34 -107 0 -7 -15 -29
-33 -49 -42 -48 -43 -64 -5 -97 31 -27 35 -28 142 -26 123 2 190 24 201 67 3
12 11 22 17 22 6 0 8 2 5 6 -3 3 0 24 6 47 7 24 11 96 11 167 -1 76 3 133 10
145 6 11 10 32 9 48 0 15 3 27 7 27 4 0 6 9 4 20 -2 12 5 30 15 40 11 11 17
20 14 20 -4 0 -1 7 6 15 7 8 9 15 6 15 -4 0 1 15 10 33 33 63 36 70 39 95 1
13 8 28 15 32 7 4 10 12 6 18 -6 11 49 72 65 72 5 0 17 -10 27 -21 9 -12 23
-27 30 -35 7 -8 11 -18 7 -23 -3 -5 3 -16 13 -23 11 -7 18 -21 16 -30 -1 -9 3
-19 10 -21 17 -7 12 -63 -10 -112 -10 -22 -18 -42 -19 -45 -1 -3 -10 -23 -20
-45 -10 -22 -18 -43 -17 -47 1 -5 -3 -8 -10 -8 -6 0 -8 -3 -5 -7 4 -3 0 -17
-8 -30 -9 -13 -13 -23 -10 -23 3 0 -2 -15 -12 -32 -9 -18 -16 -37 -15 -42 2
-5 -4 -16 -12 -25 -9 -9 -17 -26 -19 -37 -2 -10 -17 -46 -32 -79 -42 -90 -40
-130 6 -123 19 2 32 20 61 78 20 41 34 78 31 83 -2 4 1 7 6 7 6 0 11 5 11 10
0 6 6 25 13 43 8 18 14 35 15 40 1 4 8 20 16 35 15 28 23 50 24 66 0 5 5 12
12 16 6 4 12 17 13 28 1 12 5 22 10 22 4 0 6 4 2 9 -3 6 3 14 13 20 16 8 18 5
19 -27 0 -20 4 -48 8 -62 4 -14 9 -47 10 -75 2 -27 4 -50 5 -50 2 0 3 -20 4
-45 1 -25 4 -49 7 -55 3 -5 5 -22 4 -37 -1 -16 1 -28 5 -28 4 0 7 -6 8 -12 4
-55 12 -111 16 -115 11 -11 85 -20 94 -11 9 9 16 10 87 7 22 0 42 0 45 1 3 0
41 3 84 6 97 7 124 22 121 67 -2 17 -4 34 -5 37 -1 3 -2 8 -1 12 0 4 -8 10
-19 13 -11 4 -21 13 -21 21 -2 22 -4 28 -17 52 -7 12 -9 22 -5 22 4 0 2 5 -4
11 -6 6 -9 17 -6 24 2 7 -5 16 -16 20 -12 3 -21 13 -21 21 0 8 -4 14 -8 14 -4
0 -8 10 -9 23 -1 12 -11 29 -23 39 -11 9 -20 21 -20 26 0 6 -26 38 -57 70 -62
64 -97 115 -86 126 3 3 2 6 -3 6 -5 0 -10 15 -11 34 -1 19 -9 49 -18 66 -9 17
-13 35 -10 40 4 6 -1 13 -10 16 -10 4 -13 13 -10 24 3 10 1 21 -5 25 -8 5 -6
13 6 26 9 10 14 19 9 19 -4 0 -2 6 4 13 6 8 8 17 4 20 -3 4 0 7 7 7 7 0 11 3
7 6 -3 3 6 26 19 50 14 25 23 48 20 53 -3 4 3 17 14 28 10 12 16 24 13 27 -4
3 -1 6 5 6 7 0 11 3 10 8 -3 8 18 66 38 104 8 14 14 36 14 47 0 12 4 21 9 21
5 0 12 12 16 28 10 43 33 72 51 65 18 -7 94 67 94 93 0 9 9 32 21 51 17 28 22
54 25 143 4 114 14 151 66 248 16 28 26 57 23 62 -3 6 -1 10 4 10 6 0 11 5 11
10 0 12 2 14 52 74 36 43 43 65 23 73 -17 6 -13 77 5 98 7 8 9 19 5 25 -3 5
-1 10 4 10 6 0 11 10 11 23 0 13 5 28 11 34 13 13 8 65 -7 70 -7 2 -21 -9 -31
-24z m-600 -1005 c9 -5 17 -6 17 -3 0 3 12 -6 27 -20 15 -14 35 -25 45 -25 27
0 48 -11 48 -26 0 -8 -4 -14 -8 -14 -5 0 -9 -6 -9 -12 0 -7 -18 -55 -41 -105
-22 -51 -39 -93 -37 -93 3 0 -4 -16 -15 -35 -11 -20 -20 -42 -20 -50 0 -8 -4
-15 -10 -15 -5 0 -10 6 -10 13 0 7 -9 19 -20 27 -11 8 -20 24 -20 37 0 12 -4
25 -10 28 -5 3 -10 15 -10 26 0 10 -4 19 -8 19 -10 0 -10 0 -15 93 -2 37 0 67
5 67 4 0 6 13 3 29 -3 17 -1 33 5 36 5 3 10 15 10 26 0 16 5 18 28 13 15 -4
35 -11 45 -16z"/>
</g>
</svg>
